<?xml version="1.0" encoding="utf-8"?>
<!-- Generator: Adobe Illustrator 27.0.0, SVG Export Plug-In . SVG Version: 6.00 Build 0)  -->
<svg version="1.1" id="Layer_1" xmlns="http://www.w3.org/2000/svg" xmlns:xlink="http://www.w3.org/1999/xlink" x="0px" y="0px"
	 viewBox="0 0 18 18" style="enable-background:new 0 0 18 18;" xml:space="preserve">
<style type="text/css">
	.st0{fill-rule:evenodd;clip-rule:evenodd;fill:#000054;}
</style>
<path class="st0" d="M9,17c4.4,0,8-3.6,8-8c0-4.4-3.6-8-8-8C4.6,1,1,4.6,1,9C1,13.4,4.6,17,9,17z M9,18c5,0,9-4,9-9c0-5-4-9-9-9
	C4,0,0,4,0,9C0,14,4,18,9,18z M8,11.1v-0.7c0-2,2.3-2.4,2.3-3.8C10.3,6,9.8,5.5,9,5.5c-0.8,0-1.5,0.6-1.5,0.6l-1-1.2c0,0,1-1,2.6-1
	c1.6,0,3.1,1,3.1,2.6c0,2.3-2.4,2.6-2.4,4.1v0.5H8z M8,14v-1.7h1.7V14H8z"/>
</svg>
